# xmcd CD database file
#
# Track frame offsets:
#	150
#	25950
#	46575
#	79125
#	102750
#	123375
#	143925
#	163875
#	180675
#	196650
#	225825
#
# Disc length: 3275 seconds
#
# Revision: 0
# Processed by: cddbd v1.5.2PL0 Copyright (c) Steve Scherf et al.
# Submitted via: CDex 1.70beta2
#
DISCID=820cc90b
DTITLE=白崎彩子 - Home Alone
DYEAR=2006
DGENRE=Jazz
TTITLE0=In Walked Bud
TTITLE1=Gee Baby,Ain't I Good To You
TTITLE2=It's All Right With Me
TTITLE3=Day Dream
TTITLE4=Luminescence
TTITLE5=Memories Of You
TTITLE6=Woody'n You
TTITLE7=Someday My Prince Will Come
TTITLE8=Donna Lee
TTITLE9=Far Away
TTITLE10=Nascimento
EXTD=YEAR: 2006
EXTT0=
EXTT1=
EXTT2=
EXTT3=
EXTT4=
EXTT5=
EXTT6=
EXTT7=
EXTT8=
EXTT9=
EXTT10=
PLAYORDER=
